<svg width="67" height="63" viewBox="0 0 67 63" fill="none" xmlns="http://www.w3.org/2000/svg">
<path d="M29.2038 32.8207L23.8687 27.7486L20.9642 30.5099L29.2038 38.3432L45.683 22.6766L42.7785 19.9153L29.2038 32.8207Z" fill="#D3844A"/>
<path d="M33.3236 59.0818L20.6017 52.6331C16.9749 50.7987 13.942 48.0601 11.8284 44.7111C9.71488 41.3621 8.60049 37.5292 8.60486 33.6236V8.16542C8.60595 7.12698 9.04035 6.13137 9.81272 5.39708C10.5851 4.66279 11.6323 4.24982 12.7246 4.24878H53.9226C55.0149 4.24982 56.0621 4.66279 56.8345 5.39708C57.6069 6.13137 58.0413 7.12698 58.0424 8.16542V33.6236C58.0467 37.5292 56.9323 41.3621 54.8188 44.7111C52.7052 48.0601 49.6723 50.7987 46.0455 52.6331L33.3236 59.0818ZM12.7246 8.16542V33.6236C12.7212 36.8192 13.6333 39.9554 15.3629 42.6955C17.0925 45.4355 19.5744 47.6761 22.5421 49.1766L33.3236 54.6423L44.1051 49.1786C47.0731 47.6779 49.5552 45.437 51.2849 42.6966C53.0145 39.9561 53.9264 36.8195 53.9226 33.6236V8.16542H12.7246Z" fill="#D3844A"/>
</svg>
