<svg width="50" height="50" viewBox="0 0 50 50" fill="none" xmlns="http://www.w3.org/2000/svg">
<path d="M13.967 33.9523H15.5575H42.676C43.3312 33.9523 43.9086 33.5218 44.0957 32.8938L49.9384 13.2758C50.0719 12.8275 49.9857 12.3425 49.7062 11.9675C49.4267 11.5925 48.9864 11.3716 48.5187 11.3716H10.8193L8.8259 4.67827C8.63888 4.05034 8.06144 3.61987 7.40617 3.61987H1.48135C0.663282 3.61978 0 4.28296 0 5.10113C0 5.91919 0.663282 6.58248 1.48135 6.58248H6.30177L8.28566 13.2437C8.29171 13.2657 8.29806 13.2875 8.30509 13.309L13.5752 31.0045C10.567 31.2068 8.18097 33.7172 8.18097 36.7758C8.18097 39.9662 10.7766 42.5619 13.9669 42.5619H15.4375C16.0802 44.7653 18.1169 46.3804 20.5251 46.3804C22.9332 46.3804 24.9701 44.7654 25.6127 42.5619H33.4723C34.115 44.7653 36.1517 46.3804 38.5599 46.3804C40.968 46.3804 43.0049 44.7654 43.6475 42.5619H45.556C46.3741 42.5619 47.0374 41.8986 47.0374 41.0805C47.0374 40.2624 46.3741 39.5991 45.556 39.5991H43.6475C43.0049 37.3956 40.9681 35.7806 38.5599 35.7806C36.1517 35.7806 34.1149 37.3956 33.4723 39.5991H25.6127C24.9701 37.3956 22.9333 35.7806 20.5251 35.7806C18.1169 35.7806 16.0801 37.3956 15.4375 39.5991H13.9669C12.4101 39.5991 11.1436 38.3325 11.1436 36.7757C11.1436 35.2189 12.4102 33.9523 13.967 33.9523ZM35.6979 14.3342H46.532L44.493 21.1806H35.6979V14.3342ZM35.6978 24.1433H43.6105L41.5716 30.9897H35.6978V24.1433ZM24.7368 14.3342H32.7353V21.1806H24.7368V14.3342ZM24.7367 24.1433H32.7352V30.9897H24.7367V24.1433ZM21.7743 30.9897H16.662L14.6231 24.1433H21.7743V30.9897ZM11.7018 14.3342H21.7742V21.1806H13.7407L11.7018 14.3342ZM38.56 38.7432C39.8488 38.7432 40.8972 39.7916 40.8972 41.0804C40.8972 42.3692 39.8488 43.4176 38.56 43.4176C37.2713 43.4176 36.2228 42.3692 36.2228 41.0804C36.2228 39.7916 37.2713 38.7432 38.56 38.7432ZM20.5252 38.7432C21.814 38.7432 22.8624 39.7916 22.8624 41.0804C22.8624 42.3692 21.814 43.4176 20.5252 43.4176C19.2365 43.4176 18.188 42.3692 18.188 41.0804C18.188 39.7916 19.2365 38.7432 20.5252 38.7432Z" fill="black"/>
</svg>
