<svg width="50" height="50" viewBox="0 0 50 50" fill="none" xmlns="http://www.w3.org/2000/svg">
<g opacity="0.5" clip-path="url(#clip0)">
<path d="M45.3129 25.0396H37.5004V18.8559C37.5004 15.4452 40.3031 12.6722 43.7504 12.6722H44.5316C45.8304 12.6722 46.8754 11.6384 46.8754 10.3533V5.71555C46.8754 4.4305 45.8304 3.39667 44.5316 3.39667H43.7504C35.1176 3.39667 28.1254 10.3147 28.1254 18.8559V42.0447C28.1254 44.6052 30.225 46.6825 32.8129 46.6825H45.3129C47.9008 46.6825 50.0004 44.6052 50.0004 42.0447V29.6773C50.0004 27.1169 47.9008 25.0396 45.3129 25.0396ZM17.1879 25.0396H9.37537V18.8559C9.37537 15.4452 12.1781 12.6722 15.6254 12.6722H16.4066C17.7054 12.6722 18.7504 11.6384 18.7504 10.3533V5.71555C18.7504 4.4305 17.7054 3.39667 16.4066 3.39667H15.6254C6.99255 3.39667 0.000366211 10.3147 0.000366211 18.8559V42.0447C0.000366211 44.6052 2.09998 46.6825 4.68787 46.6825H17.1879C19.7758 46.6825 21.8754 44.6052 21.8754 42.0447V29.6773C21.8754 27.1169 19.7758 25.0396 17.1879 25.0396Z" fill="#878787"/>
</g>
<defs>
<clipPath id="clip0">
<rect width="50" height="49.4695" fill="white" transform="translate(0.000366211 0.30481)"/>
</clipPath>
</defs>
</svg>
