<svg width="67" height="63" viewBox="0 0 67 63" fill="none" xmlns="http://www.w3.org/2000/svg">
<path fill-rule="evenodd" clip-rule="evenodd" d="M64.7893 48.6375C64.7893 52.1 63.3424 55.4207 60.7671 57.8691C58.1917 60.3175 54.6987 61.693 51.0566 61.693C47.4145 61.693 43.9215 60.3175 41.3462 57.8691C38.7708 55.4207 37.324 52.1 37.324 48.6375C37.324 45.175 38.7708 41.8542 41.3462 39.4059C43.9215 36.9575 47.4145 35.582 51.0566 35.582C54.6987 35.582 58.1917 36.9575 60.7671 39.4059C63.3424 41.8542 64.7893 45.175 64.7893 48.6375V48.6375Z" stroke="#D3844A" stroke-width="2.625" stroke-linejoin="round"/>
<path d="M57.9229 48.6375H44.1903M51.0566 42.1097V55.1652V42.1097Z" stroke="#D3844A" stroke-width="2.625" stroke-linecap="round" stroke-linejoin="round"/>
<path d="M38.6011 35.014C36.4726 34.3416 34.1655 33.6236 31.8309 32.775V26.2472C31.8309 26.2472 35.9507 24.6349 35.9507 18.4139C38.0999 18.4139 38.0999 13.009 35.9507 13.009C35.9507 12.4084 38.2166 8.81816 37.324 5.35846C36.0194 0.397372 20.7762 0.397372 19.4716 5.36498C12.9692 4.12471 16.725 12.3693 16.725 13.1983C14.5759 13.1983 14.5759 18.4205 16.725 18.4205C16.725 24.6414 20.8448 26.2538 20.8448 26.2538V32.7815C13.2164 35.5427 4.12535 37.3705 2.9924 40.6148C1.6878 44.3487 1.61914 51.2485 1.61914 51.2485H30.4577" stroke="#D3844A" stroke-width="2.625" stroke-linejoin="round"/>
</svg>
