<svg width="67" height="63" viewBox="0 0 67 63" fill="none" xmlns="http://www.w3.org/2000/svg">
<path d="M40.9852 39.0495C38.925 41.0075 36.1312 42.1074 33.218 42.1074C30.3049 42.1074 27.5111 41.0075 25.4509 39.0495H40.9852ZM24.9785 26.4431H25.0059H24.9785ZM41.4576 26.4431H41.4851H41.4576ZM57.9368 31.6653C57.9368 34.7513 57.2974 37.8072 56.0552 40.6583C54.813 43.5094 52.9922 46.1 50.6968 48.2822C48.4015 50.4644 45.6765 52.1954 42.6775 53.3763C39.6785 54.5573 36.4642 55.1651 33.218 55.1651C29.9719 55.1651 26.7576 54.5573 23.7586 53.3763C20.7596 52.1954 18.0346 50.4644 15.7393 48.2822C13.4439 46.1 11.6231 43.5094 10.3809 40.6583C9.13867 37.8072 8.4993 34.7513 8.4993 31.6653C8.4993 25.4327 11.1036 19.4554 15.7393 15.0484C20.3749 10.6413 26.6622 8.16541 33.218 8.16541C39.7739 8.16541 46.0612 10.6413 50.6968 15.0484C55.3325 19.4554 57.9368 25.4327 57.9368 31.6653Z" stroke="#D3844A" stroke-width="4" stroke-linecap="round" stroke-linejoin="round"/>
</svg>
